<?xml version="1.0" standalone="no"?>
<!DOCTYPE svg PUBLIC "-//W3C//DTD SVG 20010904//EN"
 "http://www.w3.org/TR/2001/REC-SVG-20010904/DTD/svg10.dtd">
<svg version="1.0" xmlns="http://www.w3.org/2000/svg"
 width="500.000000pt" height="500.000000pt" viewBox="0 0 500.000000 500.000000"
 preserveAspectRatio="xMidYMid meet">
<metadata>
Created by potrace 1.16, written by Peter Selinger 2001-2019
</metadata>
<g transform="translate(0.000000,500.000000) scale(0.100000,-0.100000)"
fill="#000000" stroke="none">
<path d="M1955 4886 c-274 -64 -506 -235 -606 -449 -44 -96 -59 -169 -59 -292
0 -147 29 -258 115 -432 35 -73 60 -133 55 -133 -5 0 -37 16 -71 36 -388 228
-760 216 -1014 -32 -109 -106 -180 -228 -236 -404 -29 -90 -34 -119 -34 -205
0 -125 24 -201 100 -315 l54 -81 -50 -82 c-72 -120 -94 -197 -94 -332 1 -245
96 -469 274 -645 149 -148 273 -200 478 -200 119 0 192 16 322 69 80 34 91 36
91 21 0 -18 -204 -222 -305 -305 -165 -135 -211 -165 -420 -273 -220 -114
-304 -167 -322 -202 -17 -34 0 -70 74 -152 82 -91 110 -132 161 -234 23 -45
55 -96 73 -114 31 -30 36 -32 90 -28 73 5 178 56 348 169 155 102 279 223 390
382 46 64 85 117 87 117 2 0 20 -33 40 -73 133 -264 336 -407 659 -462 84 -14
112 -15 180 -5 126 19 203 57 345 170 l26 21 88 -41 c150 -69 246 -83 388 -56
287 56 539 239 660 481 44 86 58 154 58 272 0 162 -39 292 -155 524 -25 49
-41 89 -36 89 5 0 40 -12 77 -26 188 -70 382 -98 519 -75 116 20 224 79 320
174 135 135 201 251 248 437 16 67 21 116 21 230 0 131 -2 152 -26 217 -32 90
-62 141 -127 217 l-50 59 35 68 c48 96 65 169 65 274 0 104 -18 181 -66 282
-98 209 -270 373 -480 458 -58 23 -89 29 -180 33 -96 4 -124 1 -212 -22 -56
-14 -103 -26 -105 -26 -2 0 -4 71 -4 158 0 138 -2 165 -22 221 -31 86 -81 162
-166 250 -118 122 -238 192 -426 247 -81 24 -113 28 -220 29 -170 0 -242 -23
-400 -128 -25 -16 -27 -16 -95 30 -109 73 -172 94 -295 99 -68 2 -126 -1 -165
-10z"/>
</g>
</svg>
